Coordinates
version=1
nRows=22
nColumns=24
inDegrees=yes

Units are S.I. units (second, meters, Newtons, ...)
Angles are in degrees.

endheader
time	pelvis_tilt	pelvis_list	pelvis_rotation	pelvis_tx	pelvis_ty	pelvis_tz	hip_flexion_r	hip_adduction_r	hip_rotation_r	knee_angle_r	ankle_angle_r	subtalar_angle_r	mtp_angle_r	hip_flexion_l	hip_adduction_l	hip_rotation_l	knee_angle_l	ankle_angle_l	subtalar_angle_l	mtp_angle_l	lumbar_extension	lumbar_bending	lumbar_rotation
      4.64000000	      6.66427625	     -4.80655345	     -7.48036468	     -0.89769610	      1.03627818	     -0.17257736	    -21.67958616	      4.70742364	     -6.58222142	    -16.72344863	     10.07398003	     -5.32721113	      0.00000000	     11.98677433	     -5.62567386	     -1.35333435	      4.44871148	      0.48839882	    -11.62506054	      0.00000000	    -21.27446195	      1.39996282	      6.54230454
      4.65000000	      6.98649107	     -4.42887502	     -7.43640177	     -0.88299633	      1.03546387	     -0.17468725	    -22.17354064	      3.87331612	     -7.52964948	    -17.73198288	      9.20003748	     -4.80073335	      0.00000000	     11.88965720	     -5.03705450	     -0.96243550	      2.97980448	     -0.47834350	    -13.04112453	      0.00000000	    -21.25069978	      1.11156734	      6.65688454
      4.66000000	      7.30708001	     -3.89737203	     -7.35120747	     -0.86808496	      1.03482059	     -0.17696242	    -22.58356123	      2.85557738	     -8.69395664	    -18.85658256	      8.24677884	     -4.09033299	      0.00000000	     11.79641673	     -4.25108883	     -0.47767445	      1.47236545	     -1.73778903	    -14.68854461	      0.00000000	    -21.17807341	      0.68205140	      6.65990019
      4.67000000	      7.64068706	     -3.22586622	     -7.19078936	     -0.85309502	      1.03443622	     -0.17937443	    -22.93449838	      1.70397251	     -9.99827620	    -20.05818921	      6.99251893	     -3.55892466	      0.00000000	     11.69603416	     -3.27708763	      0.21925069	     -0.04738148	     -3.28831055	    -16.54421336	      0.00000000	    -21.09874540	      0.12389317	      6.58401798
      4.68000000	      7.97335570	     -2.40817887	     -6.94979826	     -0.83813004	      1.03436722	     -0.18187745	    -23.20346374	      0.42881401	    -11.40072899	    -21.34066842	      5.34867936	     -3.30200401	      0.00000000	     11.63152893	     -2.10958967	      0.99997987	     -1.61941210	     -4.93409059	    -18.31867596	      0.00000000	    -21.01083472	     -0.57286150	      6.41592281
      4.69000000	      8.42397501	     -1.40111449	     -6.60875350	     -0.82324296	      1.03476302	     -0.18445697	    -23.51151229	     -1.01533838	    -12.92267268	    -22.71152830	      3.24109548	     -3.33114087	      0.00000000	     11.51022771	     -0.68873042	      1.63640901	     -3.31195195	     -5.98075274	    -19.48950046	      0.00000000	    -21.07033782	     -1.47827034	      6.09340397
      4.70000000	      8.80227277	     -0.30748821	     -6.18368030	     -0.80849616	      1.03539832	     -0.18708634	    -23.64549245	     -2.50212366	    -14.45104482	    -24.20947880	      0.64751460	     -3.75790932	      0.00000000	     11.49783641	      0.84371678	      2.20642720	     -5.09099564	     -6.75142690	    -20.30447669	      0.00000000	    -21.07128518	     -2.44909125	      5.74963395
      4.71000000	      9.14956205	      0.83253245	     -5.66568493	     -0.79390336	      1.03624799	     -0.18976820	    -23.64909881	     -3.99377482	    -15.93541877	    -25.85018607	     -2.40488677	     -4.52158223	      0.00000000	     11.53291742	      2.43978440	      2.58629466	     -6.94838532	     -6.82152916	    -20.55454503	      0.00000000	    -21.08305365	     -3.44478596	      5.28857858
      4.72000000	      9.44605288	      1.91913124	     -5.12403937	     -0.77950345	      1.03725692	     -0.19241857	    -23.48876037	     -5.39439744	    -17.15245356	    -27.63001858	     -5.96864698	     -5.82609927	      0.00000000	     11.53291348	      3.96959810	      2.87185664	     -8.71711838	     -6.54047107	    -20.53349838	      0.00000000	    -21.09545990	     -4.37454459	      4.89324860
      4.73000000	      9.62017200	      2.89584761	     -4.59888468	     -0.76532769	      1.03827408	     -0.19502085	    -23.04527986	     -6.66293621	    -18.00571020	    -29.60609485	     -9.85902683	     -7.56238914	      0.00000000	     11.52922438	      5.35180047	      3.03681692	    -10.30731317	     -5.93066387	    -20.34174434	      0.00000000	    -21.03221223	     -5.17239352	      4.54860138
      4.74000000	      9.66141244	      3.75314522	     -4.15571548	     -0.75141202	      1.03924587	     -0.19751075	    -22.27084148	     -7.80662196	    -18.39752227	    -31.79675098	    -13.88025926	     -9.65751971	      0.00000000	     11.49389502	      6.56472182	      3.12381901	    -11.62718358	     -5.18897397	    -20.15914007	      0.00000000	    -20.87917692	     -5.85396770	      4.32388804
      4.75000000	      9.58323446	      4.48628447	     -3.86519494	     -0.73782809	      1.04014962	     -0.19982304	    -21.13042996	     -8.85267927	    -18.31237006	    -34.23795020	    -17.85891125	    -12.10067363	      0.00000000	     11.39739343	      7.59663697	      3.14601034	    -12.61472106	     -4.42317608	    -20.08261798	      0.00000000	    -20.65188612	     -6.42670976	      4.26178673
      4.76000000	      9.41276161	      5.12674112	     -3.75127760	     -0.72463175	      1.04098555	     -0.20190024	    -19.63762241	     -9.82100120	    -17.76934954	    -36.91352643	    -21.66988459	    -14.84895179	      0.00000000	     11.23923464	      8.48236083	      3.09754097	    -13.28988833	     -3.66548170	    -20.13105770	      0.00000000	    -20.38368054	     -6.94328737	      4.33209227
      4.77000000	      9.18518317	      5.70531480	     -3.83290474	     -0.71186320	      1.04178471	     -0.20368546	    -17.83129951	    -10.72206988	    -16.80928129	    -39.77897166	    -25.26442352	    -17.90635332	      0.00000000	     11.01450651	      9.25848588	      2.99581402	    -13.68883215	     -2.94869246	    -20.25744060	      0.00000000	    -20.11051151	     -7.44594260	      4.49625567
      4.78000000	      8.94483745	      6.22969538	     -4.07958888	     -0.69955026	      1.04259552	     -0.20515711	    -15.79675372	    -11.51974801	    -15.52485802	    -42.74421966	    -28.60618070	    -21.34853528	      0.00000000	     10.70951827	      9.94383883	      2.88018179	    -13.86493111	     -2.20379351	    -20.38038332	      0.00000000	    -19.88227513	     -7.94180155	      4.72782776
      4.79000000	      8.71722298	      6.73686244	     -4.42780239	     -0.68765372	      1.04345323	     -0.20636710	    -13.61849527	    -12.23081249	    -14.08136689	    -45.71893860	    -31.74930558	    -25.02257241	      0.00000000	     10.34709116	     10.58147390	      2.66682347	    -13.89826178	     -1.53822577	    -20.51898837	      0.00000000	    -19.72188406	     -8.45644138	      4.90962946
      4.80000000	      8.53604439	      7.20692144	     -4.80633934	     -0.67613878	      1.04442722	     -0.20735516	    -11.40879208	    -12.79064840	    -12.56176605	    -48.58671188	    -34.55061658	    -28.96756115	      0.00000000	      9.89584696	     11.16575652	      2.45055838	    -13.81802162	     -0.88892674	    -20.53325369	      0.00000000	    -19.66682354	     -8.95593810	      5.00074371
      4.81000000	      8.40726366	      7.62399995	     -5.14477827	     -0.66491426	      1.04556344	     -0.20822311	     -9.24296933	    -13.17682873	    -11.06724920	    -51.25871939	    -37.01808322	    -32.91047943	      0.00000000	      9.35689998	     11.69028136	      2.24996485	    -13.66232745	     -0.19612582	    -20.38873887	      0.00000000	    -19.71343967	     -9.40147021	      4.93884576
      4.82000000	      8.29376807	      7.95976629	     -5.38419470	     -0.65392562	      1.04682320	     -0.20904532	     -7.13895453	    -13.36523266	     -9.68684060	    -53.67679255	    -38.78055903	    -36.69710857	      0.00000000	      8.78765262	     12.12259507	      2.03580916	    -13.48432468	      0.48071766	    -20.11439616	      0.00000000	    -19.82104657	     -9.74202808	      4.68822070
      4.83000000	      8.18999989	      8.18716384	     -5.48358020	     -0.64309389	      1.04821994	     -0.20990143	     -5.13787904	    -13.34724088	     -8.48417412	    -55.79064942	    -39.67224258	    -40.08623756	      0.00000000	      8.18852468	     12.43925214	      1.85155243	    -13.30408976	      1.18350994	    -19.67562333	      0.00000000	    -19.97507493	     -9.93162425	      4.25288460
      4.84000000	      8.05569359	      8.28485140	     -5.43062383	     -0.63236789	      1.04970545	     -0.21083813	     -3.21809087	    -13.12490475	     -7.48784049	    -57.57520939	    -39.50405065	    -42.84971053	      0.00000000	      7.60561891	     12.61540332	      1.71694796	    -13.14336533	      1.88661731	    -19.12588023	      0.00000000	    -20.12215045	     -9.93730405	      3.66687088
      4.85000000	      7.89658671	      8.24929624	     -5.23952146	     -0.62171007	      1.05126830	     -0.21185414	     -1.39071008	    -12.71819338	     -6.69283858	    -59.02170494	    -38.32750158	    -44.91719707	      0.00000000	      7.03381046	     12.64789451	      1.64624356	    -13.00541400	      2.56863340	    -18.52284523	      0.00000000	    -20.25933755	     -9.75860326	      2.97372726
